<svg width="543" height="100" viewBox="0 0 543 100" fill="none" xmlns="http://www.w3.org/2000/svg">
<path d="M534.08 98.607L527.45 44.291H527.074L528.138 98.607H518.515V0.779H527.428L533.482 51.854H534.08L532.972 0.779H542.64V98.607H534.08ZM498.47 0.779H515.101V13.743H508.226V44.592H515.101V57.315H508.226V85.763H515.101V98.607H498.47V0.779ZM482.505 66.558C481.352 61.437 479.829 57.836 477.937 55.755V98.607H468.181V0.779H473.414C479.534 0.779 484.301 3.161 487.715 7.921C491.13 12.684 492.838 19.345 492.838 27.907C492.838 32.749 492.143 37.05 490.754 40.81C489.777 43.492 488.255 46.053 486.186 48.492C487.693 50.735 488.802 52.855 489.511 54.854C490.99 59.096 492.165 64.538 493.037 71.179C493.909 77.821 494.656 86.964 495.277 98.607H485.432C485.017 84.043 484.042 73.36 482.505 66.558ZM482.461 19.885C481.573 17.468 480.332 15.802 478.735 14.883V43.031C480.302 42.113 481.536 40.406 482.439 37.911C483.34 35.416 483.791 32.431 483.791 28.957C483.791 25.325 483.348 22.301 482.461 19.885ZM453.768 0.779H463.525V98.607H453.768V0.779ZM444.795 46.512C446.993 54.314 448.596 61.297 449.601 67.458C450.103 70.579 450.354 73.92 450.354 77.481C450.354 84.523 449.091 89.934 446.563 93.715C444.035 97.497 440.879 99.387 437.095 99.387C435.439 99.387 433.384 98.867 430.93 97.826V84.383C432.439 85.264 433.828 85.703 435.099 85.703C436.843 85.703 438.226 84.944 439.245 83.423C440.265 81.902 440.776 79.662 440.776 76.7C440.776 74.34 440.583 72.08 440.199 69.919C439.46 65.638 438.099 60.087 436.119 53.265C434.138 46.443 432.675 40.251 431.729 34.689C431.197 31.529 430.93 28.007 430.93 24.126C430.93 15.724 432.135 9.602 434.544 5.761C436.954 1.92 440.095 0 443.968 0C445.771 0 447.841 0.5 450.177 1.499V14.524C448.817 13.643 447.575 13.203 446.452 13.203C444.796 13.203 443.391 14.124 442.239 15.964C441.086 17.805 440.51 20.486 440.51 24.006C440.51 26.327 440.698 28.607 441.076 30.848C441.803 35.05 443.042 40.27 444.795 46.512ZM401.572 66.558C400.419 61.437 398.897 57.836 397.005 55.755V98.607H387.248V0.779H392.482C398.601 0.779 403.368 3.161 406.783 7.921C410.198 12.684 411.905 19.345 411.905 27.907C411.905 32.749 411.21 37.05 409.821 40.81C408.845 43.492 407.322 46.053 405.253 48.492C406.761 50.735 407.87 52.855 408.579 54.854C410.057 59.096 411.232 64.538 412.105 71.179C412.977 77.821 413.724 86.964 414.344 98.607H404.5C404.085 84.043 403.11 73.36 401.572 66.558ZM401.529 19.885C400.641 17.468 399.4 15.802 397.803 14.883V43.031C399.37 42.113 400.604 40.406 401.506 37.911C402.408 35.416 402.858 32.431 402.858 28.957C402.858 25.325 402.415 22.301 401.529 19.885ZM367.381 0.779H384.012V13.743H377.138V44.592H384.012V57.315H377.138V85.763H384.012V98.607H367.381V0.779ZM357.093 98.607H347.337V13.563H340.463V0.779H363.923V13.563H357.093V98.607ZM332.642 46.512C334.84 54.314 336.442 61.297 337.447 67.458C337.95 70.579 338.201 73.92 338.201 77.481C338.201 84.523 336.938 89.934 334.409 93.715C331.882 97.497 328.726 99.387 324.942 99.387C323.286 99.387 321.23 98.867 318.777 97.826V84.383C320.285 85.264 321.674 85.703 322.946 85.703C324.69 85.703 326.072 84.944 327.092 83.423C328.112 81.902 328.623 79.662 328.623 76.7C328.623 74.34 328.429 72.08 328.046 69.919C327.307 65.638 325.946 60.087 323.966 53.265C321.985 46.443 320.521 40.251 319.576 34.689C319.043 31.529 318.777 28.007 318.777 24.126C318.777 15.724 319.981 9.602 322.391 5.761C324.801 1.92 327.942 0 331.815 0C333.618 0 335.688 0.5 338.023 1.499V14.524C336.664 13.643 335.422 13.203 334.299 13.203C332.643 13.203 331.238 14.124 330.085 15.964C328.933 17.805 328.357 20.486 328.357 24.006C328.357 26.327 328.545 28.607 328.923 30.848C329.649 35.05 330.889 40.27 332.642 46.512ZM299.863 44.291H299.486L300.551 98.607H290.928V0.779H299.841L305.895 51.854H306.493L305.385 0.779H315.052V98.607H306.493L299.863 44.291ZM273.898 99.387C269.906 99.387 266.817 95.545 264.629 87.863C261.968 78.381 260.638 66.077 260.638 50.954C260.638 32.069 262.13 18.364 265.117 9.843C267.423 3.281 270.29 0 273.72 0C275.317 0 276.883 0.801 278.422 2.4C279.958 4.001 281.377 6.872 282.679 11.013C283.979 15.154 284.969 20.695 285.65 27.637C286.33 34.579 286.669 41.991 286.669 49.873C286.669 69.799 284.881 83.883 281.303 92.125C279.204 96.967 276.737 99.387 273.898 99.387ZM275.627 22.565C275.213 19.605 274.577 17.104 273.72 15.064C272.951 16.825 272.375 18.755 271.99 20.855C271.606 22.956 271.326 26.728 271.148 32.169C270.882 40.731 270.749 47.473 270.749 52.394C270.749 63.478 271.074 71.459 271.725 76.341C272.138 79.461 272.803 82.203 273.72 84.563C274.577 82.243 275.183 80.012 275.539 77.871C275.894 75.731 276.13 71.959 276.248 66.558C276.455 56.556 276.559 49.253 276.559 44.652C276.559 34.369 276.248 27.007 275.627 22.565ZM245.361 51.014L240.111 98.607H236.871L232.057 51.014L229.418 98.607H220.061L227.669 0.779H235.56L238.709 54.914L242.301 0.779H250.212L257.357 98.607H247.687L245.361 51.014ZM142.846 0.319H200.789V98.607H182.547L142.846 0.319ZM146.533 98.607L120.65 33.426L114.281 49.463L133.796 98.607H107.305L101.036 82.82L94.766 98.607H68.275L87.79 49.463L81.422 33.426L55.538 98.607H29.047L68.077 0.319H68.275H94.568H94.766L101.036 16.106L107.305 0.319H107.503H133.796H133.994L173.024 98.607H146.533ZM0 98.607V0.319H57.943L18.242 98.607H0Z" fill="#D4D8DD"/>
</svg>
